<svg width="77" height="52" viewBox="0 0 77 52" fill="none" xmlns="http://www.w3.org/2000/svg">
<path d="M54.6583 6.80257C56.3579 2.68573 60.3722 0 64.826 0H65.5584C73.3923 0 78.7154 7.95629 75.7261 15.1974L63.3415 45.1974C61.642 49.3143 57.6277 52 53.1738 52H52.4414C44.6075 52 39.2844 44.0437 42.2737 36.8026L54.6583 6.80257Z" fill="#F84301"/>
<path d="M33.189 6.96029C34.8878 2.75394 38.97 0 43.5064 0C51.394 0 56.7773 7.97977 53.8237 15.2935L41.8108 45.0397C40.1121 49.2461 36.0299 52 31.4935 52C23.6058 52 18.2225 44.0202 21.1762 36.7065L33.189 6.96029Z" fill="#4D64FD"/>
<path d="M13.189 6.96029C14.8878 2.75394 18.97 0 23.5064 0C31.394 0 36.7773 7.97977 33.8237 15.2935L21.8108 45.0397C20.1121 49.2461 16.0299 52 11.4935 52C3.60585 52 -1.77748 44.0202 1.17615 36.7065L13.189 6.96029Z" fill="black"/>
</svg>
