<svg width="202" height="30" viewBox="0 0 202 30" fill="none" xmlns="http://www.w3.org/2000/svg">
<path d="M31.3689 4.04533C32.3796 1.59714 34.7668 0 37.4154 0C42.074 0 45.2395 4.73142 43.4618 9.03755L36.4781 25.9547C35.4674 28.4029 33.0802 30 30.4316 30C25.773 30 22.6075 25.2686 24.3852 20.9625L31.3689 4.04533Z" fill="#F84301"/>
<path d="M19.0328 4.01555C20.0128 1.58881 22.3679 0 24.9851 0C29.5357 0 32.6414 4.60371 30.9374 8.82318L24.0069 25.9844C23.0269 28.4112 20.6717 30 18.0546 30C13.504 30 10.3983 25.3963 12.1023 21.1768L19.0328 4.01555Z" fill="#4D64FD"/>
<path d="M7.49382 4.01555C8.47385 1.58881 10.829 0 13.4461 0C17.9967 0 21.1025 4.60371 19.3984 8.82318L12.4679 25.9844C11.4879 28.4112 9.13278 30 6.51562 30C1.96506 30 -1.1407 25.3963 0.563316 21.1768L7.49382 4.01555Z" fill="black"/>
<path d="M52.2552 22.4484V6.44838H55.5833V12.464H55.6849C55.8307 12.1411 56.0416 11.813 56.3177 11.4796C56.5989 11.1411 56.9635 10.8598 57.4114 10.6359C57.8646 10.4067 58.4271 10.2921 59.0989 10.2921C59.9739 10.2921 60.7812 10.5213 61.5208 10.9796C62.2604 11.4328 62.8515 12.1177 63.2943 13.0343C63.737 13.9458 63.9583 15.089 63.9583 16.464C63.9583 17.8026 63.7422 18.9328 63.3099 19.8546C62.8828 20.7713 62.2995 21.4666 61.5599 21.9406C60.8255 22.4093 60.0026 22.6437 59.0911 22.6437C58.4453 22.6437 57.8958 22.5369 57.4427 22.3234C56.9948 22.1098 56.6276 21.8416 56.3411 21.5187C56.0547 21.1906 55.8359 20.8598 55.6849 20.5265H55.5364V22.4484H52.2552ZM55.513 16.4484C55.513 17.1619 55.612 17.7843 55.8099 18.3156C56.0078 18.8468 56.2943 19.2609 56.6693 19.5578C57.0443 19.8494 57.5 19.9953 58.0364 19.9953C58.5781 19.9953 59.0364 19.8468 59.4114 19.5499C59.7864 19.2479 60.0703 18.8312 60.263 18.2999C60.4609 17.7635 60.5599 17.1463 60.5599 16.4484C60.5599 15.7557 60.4635 15.1463 60.2708 14.6203C60.0781 14.0942 59.7943 13.6828 59.4193 13.3859C59.0443 13.089 58.5833 12.9406 58.0364 12.9406C57.4948 12.9406 57.0364 13.0838 56.6614 13.3703C56.2916 13.6567 56.0078 14.063 55.8099 14.589C55.612 15.1151 55.513 15.7348 55.513 16.4484Z" fill="black"/>
<path d="M70.6009 22.6828C69.3873 22.6828 68.3379 22.4249 67.4525 21.9093C66.5722 21.3885 65.8926 20.6645 65.4134 19.7374C64.9342 18.8052 64.6946 17.7244 64.6946 16.4953C64.6946 15.2557 64.9342 14.1723 65.4134 13.2453C65.8926 12.313 66.5722 11.589 67.4525 11.0734C68.3379 10.5526 69.3873 10.2921 70.6009 10.2921C71.8144 10.2921 72.8613 10.5526 73.7415 11.0734C74.6269 11.589 75.3092 12.313 75.7884 13.2453C76.2676 14.1723 76.5071 15.2557 76.5071 16.4953C76.5071 17.7244 76.2676 18.8052 75.7884 19.7374C75.3092 20.6645 74.6269 21.3885 73.7415 21.9093C72.8613 22.4249 71.8144 22.6828 70.6009 22.6828ZM70.6165 20.1046C71.1686 20.1046 71.6295 19.9484 71.9993 19.6359C72.3691 19.3182 72.6478 18.8859 72.8353 18.339C73.028 17.7921 73.1243 17.1697 73.1243 16.4718C73.1243 15.7739 73.028 15.1515 72.8353 14.6046C72.6478 14.0578 72.3691 13.6255 71.9993 13.3078C71.6295 12.9901 71.1686 12.8312 70.6165 12.8312C70.0592 12.8312 69.5905 12.9901 69.2103 13.3078C68.8353 13.6255 68.5514 14.0578 68.3587 14.6046C68.1712 15.1515 68.0775 15.7739 68.0775 16.4718C68.0775 17.1697 68.1712 17.7921 68.3587 18.339C68.5514 18.8859 68.8353 19.3182 69.2103 19.6359C69.5905 19.9484 70.0592 20.1046 70.6165 20.1046Z" fill="black"/>
<path d="M79.7376 22.4484L76.472 10.4484H79.8392L81.6985 18.5109H81.8079L83.7454 10.4484H87.0501L89.0189 18.464H89.1204L90.9485 10.4484H94.3079L91.0501 22.4484H87.5267L85.4642 14.9015H85.3157L83.2532 22.4484H79.7376Z" fill="black"/>
<path d="M98.4114 6.44838V22.4484H95.0833V6.44838H98.4114Z" fill="black"/>
<path d="M100.077 22.4484V10.4484H103.406V22.4484H100.077ZM101.749 8.90151C101.255 8.90151 100.83 8.73745 100.476 8.40932C100.127 8.07599 99.9525 7.67755 99.9525 7.21401C99.9525 6.75567 100.127 6.36245 100.476 6.03432C100.83 5.70099 101.255 5.53432 101.749 5.53432C102.244 5.53432 102.666 5.70099 103.015 6.03432C103.369 6.36245 103.546 6.75567 103.546 7.21401C103.546 7.67755 103.369 8.07599 103.015 8.40932C102.666 8.73745 102.244 8.90151 101.749 8.90151Z" fill="black"/>
<path d="M108.4 15.5109V22.4484H105.072V10.4484H108.243V12.5656H108.384C108.65 11.8677 109.095 11.3156 109.72 10.9093C110.345 10.4979 111.103 10.2921 111.993 10.2921C112.827 10.2921 113.553 10.4744 114.173 10.839C114.793 11.2036 115.275 11.7244 115.618 12.4015C115.962 13.0734 116.134 13.8755 116.134 14.8078V22.4484H112.806V15.4015C112.811 14.6671 112.624 14.0942 112.243 13.6828C111.863 13.2661 111.34 13.0578 110.673 13.0578C110.225 13.0578 109.829 13.1541 109.486 13.3468C109.147 13.5395 108.881 13.8208 108.689 14.1906C108.501 14.5552 108.405 14.9953 108.4 15.5109Z" fill="black"/>
<path d="M123.163 27.1984C122.085 27.1984 121.161 27.0499 120.39 26.7531C119.624 26.4614 119.015 26.063 118.562 25.5578C118.109 25.0526 117.814 24.4848 117.679 23.8546L120.757 23.4406C120.851 23.6802 120.999 23.9041 121.202 24.1124C121.406 24.3208 121.674 24.4874 122.007 24.6124C122.346 24.7427 122.757 24.8078 123.242 24.8078C123.965 24.8078 124.562 24.6307 125.031 24.2765C125.505 23.9276 125.742 23.3416 125.742 22.5187V20.3234H125.601C125.455 20.6567 125.236 20.9718 124.945 21.2687C124.653 21.5656 124.278 21.8078 123.82 21.9953C123.361 22.1828 122.814 22.2765 122.179 22.2765C121.278 22.2765 120.458 22.0682 119.718 21.6515C118.984 21.2296 118.398 20.5864 117.96 19.7218C117.528 18.852 117.312 17.7531 117.312 16.4249C117.312 15.0656 117.533 13.9302 117.976 13.0187C118.419 12.1072 119.007 11.4249 119.742 10.9718C120.481 10.5187 121.291 10.2921 122.171 10.2921C122.843 10.2921 123.406 10.4067 123.859 10.6359C124.312 10.8598 124.676 11.1411 124.952 11.4796C125.234 11.813 125.45 12.1411 125.601 12.464H125.726V10.4484H129.031V22.5656C129.031 23.5864 128.781 24.4406 128.281 25.1281C127.781 25.8156 127.088 26.3312 126.202 26.6749C125.322 27.0239 124.309 27.1984 123.163 27.1984ZM123.234 19.7765C123.77 19.7765 124.223 19.6437 124.593 19.3781C124.968 19.1072 125.255 18.7218 125.452 18.2218C125.656 17.7166 125.757 17.1124 125.757 16.4093C125.757 15.7062 125.658 15.0968 125.46 14.5812C125.262 14.0604 124.976 13.6567 124.601 13.3703C124.226 13.0838 123.77 12.9406 123.234 12.9406C122.687 12.9406 122.226 13.089 121.851 13.3859C121.476 13.6776 121.192 14.0838 120.999 14.6046C120.807 15.1255 120.71 15.727 120.71 16.4093C120.71 17.102 120.807 17.701 120.999 18.2062C121.197 18.7062 121.481 19.0942 121.851 19.3703C122.226 19.6411 122.687 19.7765 123.234 19.7765Z" fill="black"/>
<path d="M140.193 22.6828C138.964 22.6828 137.906 22.4223 137.021 21.9015C136.141 21.3755 135.464 20.6463 134.99 19.714C134.521 18.7817 134.286 17.7088 134.286 16.4953C134.286 15.2661 134.523 14.188 134.997 13.2609C135.477 12.3286 136.156 11.602 137.036 11.0812C137.917 10.5552 138.964 10.2921 140.177 10.2921C141.224 10.2921 142.141 10.4822 142.927 10.8624C143.714 11.2427 144.336 11.7765 144.794 12.464C145.253 13.1515 145.505 13.9588 145.552 14.8859H142.411C142.323 14.2869 142.089 13.8052 141.708 13.4406C141.333 13.0708 140.841 12.8859 140.232 12.8859C139.716 12.8859 139.266 13.0265 138.88 13.3078C138.5 13.5838 138.203 13.9874 137.99 14.5187C137.776 15.0499 137.669 15.6932 137.669 16.4484C137.669 17.214 137.773 17.8651 137.982 18.4015C138.195 18.938 138.495 19.3468 138.88 19.6281C139.266 19.9093 139.716 20.0499 140.232 20.0499C140.612 20.0499 140.953 19.9718 141.255 19.8156C141.562 19.6593 141.815 19.4328 142.013 19.1359C142.216 18.8338 142.349 18.4718 142.411 18.0499H145.552C145.5 18.9666 145.25 19.7739 144.802 20.4718C144.359 21.1645 143.747 21.7062 142.966 22.0968C142.185 22.4874 141.26 22.6828 140.193 22.6828Z" fill="black"/>
<path d="M150.011 15.5109V22.4484H146.683V6.44838H149.917V12.5656H150.058C150.329 11.8572 150.766 11.3026 151.37 10.9015C151.975 10.4953 152.732 10.2921 153.644 10.2921C154.477 10.2921 155.204 10.4744 155.824 10.839C156.449 11.1984 156.933 11.7166 157.277 12.3937C157.626 13.0656 157.798 13.8703 157.792 14.8078V22.4484H154.464V15.4015C154.469 14.6619 154.282 14.0864 153.902 13.6749C153.527 13.2635 153.001 13.0578 152.324 13.0578C151.87 13.0578 151.469 13.1541 151.12 13.3468C150.777 13.5395 150.506 13.8208 150.308 14.1906C150.115 14.5552 150.016 14.9953 150.011 15.5109Z" fill="black"/>
<path d="M162.833 22.6749C162.068 22.6749 161.385 22.5421 160.786 22.2765C160.187 22.0057 159.714 21.6072 159.365 21.0812C159.021 20.5499 158.849 19.8885 158.849 19.0968C158.849 18.4302 158.971 17.8703 159.216 17.4171C159.461 16.964 159.794 16.5994 160.216 16.3234C160.638 16.0473 161.117 15.839 161.654 15.6984C162.195 15.5578 162.763 15.4588 163.357 15.4015C164.055 15.3286 164.617 15.2609 165.044 15.1984C165.471 15.1307 165.781 15.0317 165.974 14.9015C166.167 14.7713 166.263 14.5786 166.263 14.3234V14.2765C166.263 13.7817 166.107 13.3989 165.794 13.1281C165.487 12.8572 165.049 12.7218 164.482 12.7218C163.883 12.7218 163.406 12.8546 163.052 13.1203C162.698 13.3807 162.464 13.7088 162.349 14.1046L159.271 13.8546C159.427 13.1255 159.734 12.4953 160.193 11.964C160.651 11.4276 161.242 11.0161 161.966 10.7296C162.695 10.438 163.539 10.2921 164.497 10.2921C165.164 10.2921 165.802 10.3703 166.411 10.5265C167.026 10.6828 167.57 10.9249 168.044 11.2531C168.523 11.5812 168.901 12.0031 169.177 12.5187C169.453 13.0291 169.591 13.6411 169.591 14.3546V22.4484H166.435V20.7843H166.341C166.148 21.1593 165.891 21.49 165.568 21.7765C165.245 22.0578 164.857 22.2791 164.404 22.4406C163.951 22.5968 163.427 22.6749 162.833 22.6749ZM163.786 20.3781C164.276 20.3781 164.708 20.2817 165.083 20.089C165.458 19.8911 165.753 19.6255 165.966 19.2921C166.18 18.9588 166.286 18.5812 166.286 18.1593V16.8859C166.182 16.9536 166.039 17.0161 165.857 17.0734C165.68 17.1255 165.479 17.1749 165.255 17.2218C165.031 17.2635 164.807 17.3025 164.583 17.339C164.359 17.3703 164.156 17.3989 163.974 17.4249C163.583 17.4822 163.242 17.5734 162.951 17.6984C162.659 17.8234 162.432 17.9927 162.271 18.2062C162.109 18.4145 162.029 18.6749 162.029 18.9874C162.029 19.4406 162.193 19.7869 162.521 20.0265C162.854 20.2609 163.276 20.3781 163.786 20.3781Z" fill="black"/>
<path d="M171.173 22.4484V10.4484H174.345V12.5656H174.486C174.736 11.8624 175.152 11.3078 175.736 10.9015C176.319 10.4953 177.017 10.2921 177.829 10.2921C178.652 10.2921 179.353 10.4979 179.931 10.9093C180.509 11.3156 180.895 11.8677 181.087 12.5656H181.212C181.457 11.8781 181.9 11.3286 182.54 10.9171C183.186 10.5005 183.949 10.2921 184.829 10.2921C185.949 10.2921 186.858 10.6489 187.556 11.3624C188.259 12.0708 188.611 13.076 188.611 14.3781V22.4484H185.29V15.0343C185.29 14.3677 185.113 13.8677 184.759 13.5343C184.405 13.201 183.962 13.0343 183.431 13.0343C182.827 13.0343 182.355 13.227 182.017 13.6124C181.678 13.9927 181.509 14.4953 181.509 15.1203V22.4484H178.283V14.964C178.283 14.3755 178.113 13.9067 177.775 13.5578C177.441 13.2088 177.001 13.0343 176.454 13.0343C176.085 13.0343 175.751 13.1281 175.454 13.3156C175.163 13.4979 174.931 13.7557 174.759 14.089C174.587 14.4171 174.501 14.8026 174.501 15.2453V22.4484H171.173Z" fill="black"/>
<path d="M190.24 26.9484V10.4484H193.521V12.464H193.669C193.815 12.1411 194.026 11.813 194.302 11.4796C194.583 11.1411 194.948 10.8598 195.396 10.6359C195.849 10.4067 196.411 10.2921 197.083 10.2921C197.958 10.2921 198.766 10.5213 199.505 10.9796C200.245 11.4328 200.836 12.1177 201.279 13.0343C201.721 13.9458 201.943 15.089 201.943 16.464C201.943 17.8026 201.727 18.9328 201.294 19.8546C200.867 20.7713 200.284 21.4666 199.544 21.9406C198.81 22.4093 197.987 22.6437 197.076 22.6437C196.43 22.6437 195.88 22.5369 195.427 22.3234C194.979 22.1098 194.612 21.8416 194.326 21.5187C194.039 21.1906 193.82 20.8598 193.669 20.5265H193.568V26.9484H190.24ZM193.497 16.4484C193.497 17.1619 193.596 17.7843 193.794 18.3156C193.992 18.8468 194.279 19.2609 194.654 19.5578C195.029 19.8494 195.484 19.9953 196.021 19.9953C196.562 19.9953 197.021 19.8468 197.396 19.5499C197.771 19.2479 198.055 18.8312 198.247 18.2999C198.445 17.7635 198.544 17.1463 198.544 16.4484C198.544 15.7557 198.448 15.1463 198.255 14.6203C198.062 14.0942 197.779 13.6828 197.404 13.3859C197.029 13.089 196.568 12.9406 196.021 12.9406C195.479 12.9406 195.021 13.0838 194.646 13.3703C194.276 13.6567 193.992 14.063 193.794 14.589C193.596 15.1151 193.497 15.7348 193.497 16.4484Z" fill="black"/>
</svg>
